<svg width="29" height="16" viewBox="0 0 29 16" fill="none" xmlns="http://www.w3.org/2000/svg">
<path d="M2.91529 6.07026C4.36326 6.03466 5.81155 5.9913 7.25953 5.96799L11.6038 5.88514L15.948 5.80941L20.2922 5.74953L19.9896 6.1761L18.2332 1.39235L17.8662 0.392944L18.8019 0.920482L23.5092 3.57564C25.0792 4.45918 26.6424 5.35405 28.205 6.25086L28.7901 6.5868L28.2732 7.02274L23.7656 10.8252L19.242 14.6086L17.8478 15.7747L18.508 14.0869L20.3175 9.4617L20.756 10.0352L11.0458 10.9139L6.18827 11.3291L1.32879 11.7243L0.65918 11.7787L1.21422 11.4113L5.56688 8.53253L5.55717 8.66102L2.91529 6.07026ZM2.91529 6.07026L5.67109 8.54062L5.7465 8.60826L5.66106 8.66911L1.40938 11.6952L1.29514 11.3825L6.13649 10.8077L10.9798 10.2527L20.6716 9.19114L21.3515 9.1167L21.1101 9.76496L19.3767 14.4189L18.643 13.8972L23.1455 10.0886L27.6638 6.29908L27.7321 7.07097C26.1731 6.16801 24.6155 5.26342 23.0642 4.34752L18.408 1.60369L18.9766 1.13182L20.5945 5.96443L20.7395 6.39714L20.2922 6.391L15.948 6.33112L11.6038 6.25539L7.25953 6.17254C5.81155 6.14923 4.36358 6.10586 2.91529 6.07026Z" fill="black"/>
</svg>
