<svg width="21" height="23" viewBox="0 0 21 23" fill="none" xmlns="http://www.w3.org/2000/svg">
<path d="M1.12224 8.31693C2.15012 7.09131 3.46515 8.53426 3.88413 9.53799C4.33248 10.6122 4.70578 11.6583 5.67688 12.3821C5.95228 12.5877 6.30796 12.7215 6.61143 12.4793C6.78959 12.3377 6.89467 12.125 6.98473 11.9155C7.60994 10.4627 7.65562 8.9676 7.58057 7.41371C7.48659 5.46042 7.45396 3.52409 8.07982 1.6465C8.24755 1.14464 8.41527 0.521386 8.92236 0.255769C9.49079 -0.0424781 10.0194 0.384335 10.304 0.865317C10.6733 1.48922 10.8169 2.23256 10.9585 2.93412C11.168 3.97179 11.326 5.02055 11.4036 6.07584C11.4878 7.22053 11.5505 8.46965 11.401 9.66198C11.6673 8.75615 11.7469 7.80463 11.7737 6.8642C11.7991 5.9551 11.7978 5.046 11.8363 4.13755C11.8748 3.22911 11.8487 2.29782 11.9453 1.39394C12.0014 0.869885 12.1293 0.101098 12.7735 0.00777293C13.3497 -0.0757625 13.8294 0.531827 14.067 0.974956C14.809 2.35786 14.9604 4.10558 15.0511 5.64119C15.1059 6.57183 14.591 9.56996 14.4768 10.4751C14.8155 9.367 15.5465 6.15676 15.7997 5.02642C16.0189 4.04945 16.2004 2.99025 16.7029 2.11117C16.9124 1.74374 17.2433 1.35021 17.7027 1.34108C18.2822 1.32933 18.5505 1.96955 18.6986 2.43356C19.2514 4.16627 19.0882 5.99034 18.7149 7.74132C18.5152 8.67783 17.3053 11.4456 16.9489 12.3149C17.1382 11.8842 18.2535 9.58432 18.463 9.16403C18.7482 8.59038 19.1045 7.83726 19.6801 7.4992C20.1115 7.24598 20.4894 7.42219 20.6343 7.87772C20.7961 8.38807 20.7655 8.98326 20.7413 9.51123C20.7132 10.1299 20.6127 10.7342 20.4594 11.3353C19.2736 15.9761 14.779 19.5466 10.0638 19.8644C8.92236 19.9414 7.75939 19.8442 6.67473 19.478C4.67249 18.8013 3.40707 17.2983 2.30805 15.5747C1.63585 14.5194 1.13595 13.3525 0.852711 12.1335C0.599495 11.0312 0.321478 9.27237 1.12224 8.31693Z" fill="#F6BEFF"/>
<path d="M9.05357 20.4732C9.29504 20.4732 9.54042 20.4647 9.78972 20.4477C14.6772 20.1182 19.2599 16.3571 20.4503 11.6987C20.618 11.0441 20.7133 10.4281 20.7413 9.81524C20.7674 9.2442 20.7955 8.63008 20.6206 8.07992C20.5194 7.76275 20.3224 7.53303 20.0626 7.43383C19.8094 7.33789 19.5164 7.37248 19.237 7.53694C19.0484 7.64789 18.8833 7.79212 18.7365 7.95723C19.0223 6.57433 19.301 4.57013 18.6836 2.63642C18.5805 2.31402 18.2692 1.33966 17.4247 1.33966C17.4175 1.33966 17.4097 1.33966 17.4025 1.33966C16.9235 1.34945 16.4915 1.66728 16.1541 2.2579C15.6959 3.05932 15.4975 3.97559 15.305 4.86251L15.2189 5.25473C15.1869 5.397 15.1282 5.65609 15.0524 5.98958C15.0511 5.96478 15.0505 5.94063 15.0492 5.91714C14.9565 4.34693 14.794 2.55223 14.0311 1.12952C13.8732 0.835838 13.2891 -0.108503 12.4361 0.0102737C11.5198 0.143408 11.4023 1.24242 11.3586 1.65618C11.294 2.26116 11.2829 2.87984 11.2725 3.47895C11.2666 3.79351 11.2614 4.10742 11.2477 4.41807C11.2425 4.54729 11.2379 4.67586 11.2333 4.80507C11.1589 4.27776 11.0649 3.73478 10.9501 3.16896C10.7954 2.40147 10.646 1.6601 10.2603 1.00878C9.89022 0.382268 9.19779 -0.0830509 8.4897 0.288943C7.9167 0.589148 7.70982 1.22023 7.54405 1.72732L7.50424 1.84675C6.86207 3.77524 6.8947 5.72592 6.99063 7.72033C7.05916 9.14174 7.03697 10.6545 6.41829 12.0922C6.3478 12.2554 6.26166 12.4388 6.13178 12.5425C5.99212 12.6541 5.79764 12.6189 5.55487 12.4394C4.72539 11.8207 4.35535 10.9234 3.96378 9.97252L3.85806 9.71669C3.57874 9.04711 2.82887 8.0003 1.90738 7.85999C1.56736 7.80974 1.06549 7.86456 0.600176 8.41994C-0.0707169 9.22005 -0.177746 10.5514 0.27191 12.491C0.560368 13.7323 1.06288 14.9213 1.7651 16.0243C2.76753 17.5971 4.08908 19.3043 6.28515 20.047C7.12573 20.3296 8.05375 20.4732 9.05357 20.4732ZM19.7676 7.96702C19.7963 7.96702 19.8244 7.97159 19.8518 7.98203C19.9406 8.01597 20.0143 8.11386 20.06 8.25743C20.2036 8.7084 20.1781 9.26639 20.1553 9.75846C20.1279 10.3602 20.0385 10.9377 19.8812 11.5532C18.7508 15.9773 14.3953 19.5491 9.74991 19.863C8.54517 19.9413 7.4429 19.8179 6.47506 19.491C4.45129 18.8064 3.20935 17.1951 2.26175 15.7077C1.59542 14.6609 1.11836 13.5345 0.845562 12.3578C0.446157 10.6349 0.515337 9.43672 1.05179 8.7965C1.28869 8.51326 1.53995 8.39775 1.82058 8.44017C2.40206 8.52827 3.03837 9.27357 3.31769 9.9425L3.42211 10.1957C3.82738 11.1779 4.24571 12.1947 5.20506 12.9087C5.66712 13.2532 6.13896 13.2865 6.49856 13.0013C6.72371 12.8219 6.85293 12.5699 6.95865 12.3246C7.62433 10.7772 7.64978 9.18415 7.57864 7.69227C7.48532 5.75464 7.45204 3.86465 8.06289 2.03209L8.10335 1.91005C8.25019 1.4617 8.4016 0.998341 8.7638 0.809081C9.27089 0.539549 9.68008 1.17781 9.75644 1.30768C10.0919 1.87416 10.2309 2.56528 10.366 3.23422C10.6003 4.39327 10.7439 5.40875 10.8163 6.39094C10.9011 7.54151 10.9599 8.76452 10.815 9.91901C10.7961 10.0704 10.8966 10.2114 11.0467 10.2427C11.1974 10.2714 11.3449 10.1846 11.388 10.0384C11.6856 9.02492 11.7502 7.97093 11.7724 7.1656C11.7828 6.80079 11.7887 6.43597 11.7946 6.07116C11.8031 5.52818 11.8122 4.98585 11.8357 4.44287C11.8494 4.127 11.8546 3.80852 11.8605 3.48874C11.8709 2.90269 11.8814 2.29706 11.9434 1.71818C12.0223 0.975499 12.1953 0.638748 12.5216 0.591106C12.9047 0.532371 13.2943 0.996384 13.5149 1.40688C14.2217 2.72452 14.3757 4.44352 14.4644 5.95108C14.5036 6.61871 14.2236 8.48585 14.0376 9.72126C13.9737 10.1448 13.9202 10.5031 13.8914 10.7302C13.8725 10.8816 13.9724 11.0219 14.1212 11.0546C14.27 11.0839 14.4194 10.9991 14.4631 10.8529C14.8169 9.69711 15.57 6.37332 15.7919 5.38264L15.8787 4.98585C16.0621 4.14266 16.2507 3.27142 16.6638 2.54831C16.8237 2.26834 17.0841 1.93289 17.4149 1.92571C17.6995 1.91005 17.9292 2.20243 18.125 2.81393C18.5779 4.23403 18.5812 5.87276 18.1341 7.97093C17.9775 8.70644 17.1532 10.6636 16.6605 11.8331C16.5469 12.104 16.4504 12.3317 16.3838 12.4949C16.3231 12.6437 16.3929 12.8134 16.5411 12.8767C16.686 12.9374 16.8596 12.8715 16.9242 12.724C17.1082 12.305 18.2092 10.0339 18.4324 9.58552L18.467 9.51569C18.7306 8.98446 19.0582 8.3227 19.5346 8.04272C19.5986 8.00487 19.6841 7.96702 19.7676 7.96702Z" fill="#312734"/>
<path d="M8.31757 17.7904C6.89682 17.8935 5.45779 18.058 4.06575 18.3902C4.72359 18.9795 5.47411 19.4618 6.3806 19.7685C7.4646 20.1353 8.62757 20.2319 9.76965 20.1549C11.8332 20.0159 13.8544 19.2536 15.5747 18.0521C13.1809 17.622 10.7492 17.6149 8.31757 17.7904Z" fill="#E6E7E8"/>
<path d="M13.7054 18.8589L6.49006 18.5306C5.41193 18.4862 4.47412 19.2765 4.4082 20.2868C4.34751 21.2977 5.16524 22.2088 6.2264 22.3125L13.4176 22.988C14.5042 23.0937 15.4571 22.2257 15.5282 21.0601C15.6052 19.8939 14.7842 18.9032 13.7054 18.8589Z" fill="#F6BEFF"/>
<path d="M13.8951 22.9996C14.4028 22.9996 14.8923 22.8175 15.2917 22.4775C15.7766 22.0638 16.0781 21.4477 16.1186 20.7872C16.1623 20.1229 15.9411 19.4676 15.5129 18.9906C15.1194 18.5527 14.5875 18.2988 14.0158 18.2747L6.79982 17.9464C5.54874 17.902 4.48758 18.8052 4.41188 19.9767C4.34205 21.1468 5.2766 22.1943 6.49504 22.3131L13.6876 22.9885C13.7561 22.9964 13.8259 22.9996 13.8951 22.9996ZM6.69801 18.5324C6.72281 18.5324 6.74826 18.5324 6.77436 18.5338L13.9891 18.862H13.9904C14.4035 18.879 14.7885 19.0643 15.0757 19.3835C15.3994 19.7437 15.5658 20.2417 15.5325 20.75C15.5019 21.2532 15.2754 21.7205 14.9106 22.0311C14.5797 22.3131 14.1653 22.4442 13.743 22.4057L6.55052 21.7303C5.64337 21.6422 4.94637 20.8721 4.99728 20.0139C5.05145 19.1831 5.80653 18.5324 6.69801 18.5324Z" fill="#312734"/>
</svg>
