<svg width="37" height="37" viewBox="0 0 37 37" fill="none" xmlns="http://www.w3.org/2000/svg">
<path d="M2 6.125C2 5.03098 2.4346 3.98177 3.20818 3.20818C3.98177 2.4346 5.03098 2 6.125 2H30.875C31.969 2 33.0182 2.4346 33.7918 3.20818C34.5654 3.98177 35 5.03098 35 6.125V30.875C35 31.969 34.5654 33.0182 33.7918 33.7918C33.0182 34.5654 31.969 35 30.875 35H6.125C5.03098 35 3.98177 34.5654 3.20818 33.7918C2.4346 33.0182 2 31.969 2 30.875V6.125Z" stroke="white" stroke-width="2.75" stroke-linecap="round" stroke-linejoin="round"/>
<path d="M10.25 16.437V26.7495" stroke="white" stroke-width="2.75" stroke-linecap="round" stroke-linejoin="round"/>
<path d="M10.25 10.2495V10.2701" stroke="white" stroke-width="2.75" stroke-linecap="round" stroke-linejoin="round"/>
<path d="M18.5005 26.7495V16.437" stroke="white" stroke-width="2.75" stroke-linecap="round" stroke-linejoin="round"/>
<path d="M26.7505 26.7495V20.562C26.7505 19.468 26.3159 18.4188 25.5423 17.6452C24.7687 16.8716 23.7195 16.437 22.6255 16.437C21.5315 16.437 20.4823 16.8716 19.7087 17.6452C18.9351 18.4188 18.5005 19.468 18.5005 20.562" stroke="white" stroke-width="2.75" stroke-linecap="round" stroke-linejoin="round"/>
</svg>
