<svg width="37" height="30" viewBox="0 0 37 30" fill="none" xmlns="http://www.w3.org/2000/svg">
<path d="M2 5.66667C2 4.69421 2.38631 3.76158 3.07394 3.07394C3.76158 2.38631 4.69421 2 5.66667 2H31.3333C32.3058 2 33.2384 2.38631 33.9261 3.07394C34.6137 3.76158 35 4.69421 35 5.66667V24C35 24.9725 34.6137 25.9051 33.9261 26.5927C33.2384 27.2804 32.3058 27.6667 31.3333 27.6667H5.66667C4.69421 27.6667 3.76158 27.2804 3.07394 26.5927C2.38631 25.9051 2 24.9725 2 24V5.66667Z" stroke="white" stroke-width="2.75" stroke-linecap="round" stroke-linejoin="round"/>
<path d="M2 5.8335L18.5 16.8335L35 5.8335" stroke="white" stroke-width="2.75" stroke-linecap="round" stroke-linejoin="round"/>
</svg>
