<svg width="88" height="77" viewBox="0 0 88 77" fill="none" xmlns="http://www.w3.org/2000/svg">
<path d="M65.6201 53.8766H21.7681V60.0318H65.6201V53.8766Z" fill="#E5D9A8" stroke="#604A2F" stroke-miterlimit="10" stroke-linejoin="round"/>
<path d="M67.2184 3.01138V53.393C67.2184 54.4942 66.3114 55.3854 65.1937 55.3854H22.0393C20.9216 55.3854 20.0146 54.4942 20.0146 53.393V3.01138C20.0146 1.90806 20.9216 1.01428 22.0393 1.01428H65.1937C65.4158 1.01428 65.631 1.05079 65.83 1.11452C66.6376 1.3791 67.2184 2.12687 67.2184 3.01138Z" fill="#FFF4C5"/>
<path d="M65.83 5.46001V50.9403C65.83 51.8544 65.0778 52.5954 64.1524 52.5954H23.0806C22.6803 52.5954 22.3124 52.4563 22.023 52.2238C21.6435 51.9206 21.4028 51.4579 21.4028 50.9403V5.46001C21.4028 4.54808 22.1548 3.80957 23.0804 3.80957H64.1522C64.5919 3.80957 64.9898 3.97604 65.2907 4.24951C65.6218 4.54808 65.83 4.98125 65.83 5.46001Z" fill="#FFF4C5"/>
<path d="M63.2084 8.1684V34.7658C63.2084 35.5615 62.5513 36.2088 61.7414 36.2088H25.6444C25.258 36.2088 24.9085 36.0607 24.647 35.8168C24.36 35.5568 24.1797 35.183 24.1797 34.7658V8.1684C24.1797 7.37041 24.8367 6.72537 25.6444 6.72537H61.7414C61.989 6.72537 62.2205 6.78466 62.4239 6.89185C62.8912 7.13344 63.2084 7.61432 63.2084 8.1684Z" fill="#EFE3AF"/>
<path d="M67.2185 3.01157V53.3932C67.2185 54.4943 66.3115 55.3856 65.1938 55.3856H23.1385C21.6345 54.7313 22.0232 52.2236 22.0232 52.2236C22.3125 52.4561 22.6804 52.5952 23.0807 52.5952H64.1525C65.0781 52.5952 65.8301 51.8543 65.8301 50.9401V5.46C65.8301 4.98124 65.6217 4.54806 65.2908 4.24949C66.0243 2.83834 65.8301 1.11721 65.8301 1.11721V1.1149C66.6377 1.37929 67.2185 2.12706 67.2185 3.01157Z" fill="#D6C992"/>
<path d="M60.6769 34.2324C61.5447 34.8844 37.0451 34.9983 29.1245 34.5721C27.4793 34.4809 26.5491 34.3691 26.7063 34.2347C25.6604 34.9437 25.6627 7.91076 26.7111 8.70199C26.5352 8.5697 27.4007 8.46039 28.9602 8.37136C36.4503 7.94726 59.9272 8.03629 60.6817 8.64039C60.7071 8.65854 60.7048 8.6792 60.6769 8.70199C61.7274 7.91076 61.7274 35.0211 60.6769 34.2324Z" fill="#64724C"/>
<path d="M63.2084 8.16838V34.7658C63.2084 35.5615 62.5513 36.2088 61.7414 36.2088H25.6443C25.258 36.2088 24.9085 36.0607 24.647 35.8168C25.422 35.0736 26.6323 34.2824 26.7064 34.2347C25.7902 35.0211 61.7251 35.019 60.677 34.2324C61.7274 35.0211 61.7274 7.91075 60.677 8.70179C60.7048 8.679 60.7072 8.65853 60.6817 8.64018C60.7558 8.07491 61.7114 7.35667 62.4241 6.89163C62.8912 7.13342 63.2084 7.61431 63.2084 8.16838Z" fill="#D6C992"/>
<path d="M60.677 8.70098C60.677 8.68078 60.6793 8.66057 60.6816 8.64017C60.7066 8.65828 60.7043 8.67849 60.677 8.70098Z" stroke="#F42727" stroke-miterlimit="10" stroke-linejoin="round"/>
<path d="M29.1245 34.5698V34.5721C27.4793 34.4809 26.5491 34.3691 26.7063 34.2347C25.6604 34.9436 25.6627 7.91074 26.7111 8.70197C26.5352 8.56968 27.4007 8.46037 28.9602 8.37134C28.9602 8.37134 27.0511 23.7365 29.1245 34.5698Z" fill="#5A6642"/>
<path d="M54.7234 42.3926C54.7234 42.6916 54.4774 42.934 54.1739 42.934H42.72C42.4166 42.934 42.1704 43.1763 42.1704 43.4753V45.0711C42.1704 45.37 42.4164 45.6124 42.72 45.6124H54.1739C54.4774 45.6124 54.7234 45.8548 54.7234 46.1539C54.7234 46.4529 54.9694 46.6952 55.2728 46.6952H62.2723C62.5758 46.6952 62.822 46.4529 62.822 46.1539V45.6124V42.9338V42.3924C62.822 42.0935 62.576 41.8509 62.2723 41.8509H55.2728C54.9694 41.8511 54.7234 42.0935 54.7234 42.3926Z" fill="#E5D9A8" stroke="#604A2F" stroke-miterlimit="10" stroke-linejoin="round"/>
<path d="M61.2168 45.8407H56.9063C56.5951 45.8407 56.3428 45.5922 56.3428 45.2855V43.2613C56.3428 42.9547 56.5951 42.7061 56.9063 42.7061H61.2168C61.5281 42.7061 61.7804 42.9547 61.7804 43.2613V45.2855C61.7804 45.592 61.5281 45.8407 61.2168 45.8407Z" fill="#C9BD8B" stroke="#604A2F" stroke-miterlimit="10" stroke-linejoin="round"/>
<path d="M60.1608 43.7034H43.9275V44.8432H60.1608V43.7034Z" fill="#604A2F"/>
<path d="M67.2184 3.01138V53.393C67.2184 54.4942 66.3114 55.3854 65.1937 55.3854H22.0393C20.9216 55.3854 20.0146 54.4942 20.0146 53.393V3.01138C20.0146 1.90806 20.9216 1.01428 22.0393 1.01428H65.1937C65.4158 1.01428 65.631 1.05079 65.83 1.11452C66.6376 1.3791 67.2184 2.12687 67.2184 3.01138Z" stroke="#604A2F" stroke-miterlimit="10" stroke-linejoin="round"/>
<path d="M66.0166 1.06605C65.8177 1.00232 65.6279 1 65.4056 1H22.2513C21.1336 1 20.167 1.82522 20.167 2.92854V53.3101C20.167 54.3204 20.9775 55.1519 21.7881 55.2827V60.0917H65.7585V55.2576C66.569 55.0648 67.3796 54.2671 67.3796 53.3103V2.92854C67.3796 2.04403 66.8242 1.33043 66.0166 1.06605Z" stroke="#604A2F" stroke-width="2" stroke-miterlimit="10" stroke-linejoin="round"/>
<path d="M65.83 5.46001V50.9403C65.83 51.8544 65.0778 52.5954 64.1524 52.5954H23.0806C22.6803 52.5954 22.3124 52.4563 22.023 52.2238C21.6435 51.9206 21.4028 51.4579 21.4028 50.9403V5.46001C21.4028 4.54808 22.1548 3.80957 23.0804 3.80957H64.1522C64.5919 3.80957 64.9898 3.97604 65.2907 4.24951C65.6218 4.54808 65.83 4.98125 65.83 5.46001Z" stroke="#604A2F" stroke-miterlimit="10" stroke-linejoin="round"/>
<path d="M63.2084 8.1684V34.7658C63.2084 35.5615 62.5513 36.2088 61.7414 36.2088H25.6444C25.258 36.2088 24.9085 36.0607 24.647 35.8168C24.36 35.5568 24.1797 35.183 24.1797 34.7658V8.1684C24.1797 7.37041 24.8367 6.72537 25.6444 6.72537H61.7414C61.989 6.72537 62.2205 6.78466 62.4239 6.89185C62.8912 7.13344 63.2084 7.61432 63.2084 8.1684Z" stroke="#604A2F" stroke-miterlimit="10" stroke-linejoin="round"/>
<path d="M60.6767 34.2332C61.0332 34.5006 57.1124 34.6764 51.8199 34.7621C47.6842 34.8301 42.7096 34.8421 38.2823 34.798C34.5761 34.7621 31.2532 34.6862 29.1256 34.5725C27.4802 34.4807 26.5502 34.3689 26.7063 34.2351C25.6607 34.9439 25.6627 7.91133 26.7124 8.70198C26.5361 8.57027 27.4014 8.46038 28.9615 8.37058C31.2148 8.24485 34.9168 8.16297 39.0119 8.12705C42.9934 8.09518 47.3439 8.10503 51.0965 8.15891C56.3123 8.23481 60.3728 8.39645 60.6808 8.63998C60.7071 8.65794 60.7051 8.67996 60.6767 8.70179C61.7283 7.91133 61.7283 35.0217 60.6767 34.2332Z" stroke="#604A2F" stroke-miterlimit="10" stroke-linejoin="round"/>
<path d="M50.3092 22.3249C50.3092 27.0522 49.705 31.3844 48.6975 34.7621C45.3914 34.8301 41.4149 34.842 37.8756 34.798C36.8649 31.4143 36.2559 27.0682 36.2559 22.3249C36.2559 16.7311 37.1015 11.6865 38.4587 8.12683C41.6417 8.09497 45.1193 8.10481 48.1192 8.1587C49.4669 11.7162 50.3092 16.7471 50.3092 22.3249Z" fill="#76845B"/>
<path d="M86.6885 72.4664H1V76H86.6885V72.4664Z" fill="#E5D9A8" stroke="#604A2F" stroke-miterlimit="10" stroke-linejoin="round"/>
<path d="M1.00024 72.4664L8.05876 60.0292L79.8502 60.0823L86.6888 72.4664H1.00024Z" fill="#FFF4C5" stroke="#604A2F" stroke-miterlimit="10" stroke-linejoin="round"/>
<path d="M79.8 60.164L8.05858 60.0292L1.07397 72.7196V76H86.7858V72.7196L79.8 60.164Z" stroke="#604A2F" stroke-width="2" stroke-miterlimit="10" stroke-linejoin="round"/>
<path d="M1 74.2333H86.6885" stroke="#604A2F" stroke-miterlimit="10" stroke-linejoin="round"/>
<path d="M9.78667 60.688L5.60986 68.8949H63.4336L61.5609 60.688H9.78667Z" fill="#755A3C"/>
<path d="M64.8616 68.8949L62.8525 60.688H77.8814L82.0008 68.8949H64.8616Z" fill="#755A3C"/>
<path d="M13.9606 62.0002C13.9136 62.0958 13.7869 62.1735 13.6791 62.1729L10.7024 62.1563C10.5945 62.1557 10.5479 62.0785 10.5987 61.9848L11.4825 60.3521C11.5333 60.2585 11.6631 60.1824 11.7707 60.1831L14.6467 60.2055C14.7545 60.2063 14.8043 60.2853 14.7572 60.3809L13.9606 62.0002Z" fill="#FFF4C5"/>
<path d="M13.9606 62.0002C13.9136 62.0958 13.7869 62.1735 13.6791 62.1729L10.7024 62.1563C10.5945 62.1557 10.5479 62.0785 10.5987 61.9848L11.4825 60.3521C11.5333 60.2585 11.6631 60.1824 11.7707 60.1831L14.6467 60.2055C14.7545 60.2063 14.8043 60.2853 14.7572 60.3809L13.9606 62.0002Z" stroke="#604A2F" stroke-miterlimit="10" stroke-linejoin="round"/>
<path d="M18.5994 62.0217C18.5578 62.1198 18.4357 62.1993 18.3279 62.1988L15.3511 62.1821C15.2433 62.1816 15.1924 62.1022 15.2378 62.006L16.0015 60.3919C16.047 60.2955 16.1725 60.2175 16.2803 60.2185L19.1563 60.2409C19.2641 60.2416 19.3184 60.3225 19.2768 60.4207L18.5994 62.0217Z" fill="#FFF4C5"/>
<path d="M18.5994 62.0217C18.5578 62.1198 18.4357 62.1993 18.3279 62.1988L15.3511 62.1821C15.2433 62.1816 15.1924 62.1022 15.2378 62.006L16.0015 60.3919C16.047 60.2955 16.1725 60.2175 16.2803 60.2185L19.1563 60.2409C19.2641 60.2416 19.3184 60.3225 19.2768 60.4207L18.5994 62.0217Z" stroke="#604A2F" stroke-miterlimit="10" stroke-linejoin="round"/>
<path d="M23.2374 62.0435C23.202 62.1437 23.0847 62.2254 22.9769 62.2248L20.0002 62.2082C19.8923 62.2076 19.8369 62.1263 19.8767 62.0276L20.522 60.4313C20.5619 60.3326 20.6827 60.2527 20.7905 60.2534L23.6665 60.2758C23.7743 60.2766 23.8335 60.3594 23.7981 60.4597L23.2374 62.0435Z" fill="#FFF4C5"/>
<path d="M23.2374 62.0435C23.202 62.1437 23.0847 62.2254 22.9769 62.2248L20.0002 62.2082C19.8923 62.2076 19.8369 62.1263 19.8767 62.0276L20.522 60.4313C20.5619 60.3326 20.6827 60.2527 20.7905 60.2534L23.6665 60.2758C23.7743 60.2766 23.8335 60.3594 23.7981 60.4597L23.2374 62.0435Z" stroke="#604A2F" stroke-miterlimit="10" stroke-linejoin="round"/>
<path d="M27.8744 62.0657C27.8454 62.1681 27.7335 62.2511 27.6256 62.2505L24.6489 62.2339C24.5411 62.2334 24.4805 62.1503 24.5142 62.0495L25.0429 60.4703C25.0766 60.3695 25.1924 60.2876 25.3003 60.2884L28.1763 60.3108C28.2841 60.3116 28.3486 60.396 28.3196 60.4983L27.8744 62.0657Z" fill="#FFF4C5"/>
<path d="M27.8744 62.0657C27.8454 62.1681 27.7335 62.2511 27.6256 62.2505L24.6489 62.2339C24.5411 62.2334 24.4805 62.1503 24.5142 62.0495L25.0429 60.4703C25.0766 60.3695 25.1924 60.2876 25.3003 60.2884L28.1763 60.3108C28.2841 60.3116 28.3486 60.396 28.3196 60.4983L27.8744 62.0657Z" stroke="#604A2F" stroke-miterlimit="10" stroke-linejoin="round"/>
<path d="M32.511 62.0887C32.4888 62.1926 32.3824 62.2772 32.2746 62.2766L29.2978 62.26C29.19 62.2594 29.1239 62.1748 29.1512 62.0721L29.5648 60.509C29.592 60.4062 29.7024 60.3228 29.8102 60.3236L32.6862 60.346C32.794 60.3467 32.864 60.4325 32.8418 60.5366L32.511 62.0887Z" fill="#FFF4C5"/>
<path d="M32.511 62.0887C32.4888 62.1926 32.3824 62.2772 32.2746 62.2766L29.2978 62.26C29.19 62.2594 29.1239 62.1748 29.1512 62.0721L29.5648 60.509C29.592 60.4062 29.7024 60.3228 29.8102 60.3236L32.6862 60.346C32.794 60.3467 32.864 60.4325 32.8418 60.5366L32.511 62.0887Z" stroke="#604A2F" stroke-miterlimit="10" stroke-linejoin="round"/>
<path d="M37.1465 62.1123C37.1316 62.2175 37.0311 62.3031 36.9235 62.3025L33.9467 62.2859C33.8389 62.2853 33.7671 62.1994 33.7873 62.0951L34.0873 60.5466C34.1074 60.4423 34.2121 60.3575 34.3199 60.3585L37.1959 60.3809C37.3038 60.3817 37.3798 60.4686 37.3647 60.5736L37.1465 62.1123Z" fill="#FFF4C5"/>
<path d="M37.1465 62.1123C37.1316 62.2175 37.0311 62.3031 36.9235 62.3025L33.9467 62.2859C33.8389 62.2853 33.7671 62.1994 33.7873 62.0951L34.0873 60.5466C34.1074 60.4423 34.2121 60.3575 34.3199 60.3585L37.1959 60.3809C37.3038 60.3817 37.3798 60.4686 37.3647 60.5736L37.1465 62.1123Z" stroke="#604A2F" stroke-miterlimit="10" stroke-linejoin="round"/>
<path d="M41.7816 62.1368C41.7742 62.2428 41.6799 62.3289 41.5721 62.3284L38.5953 62.3118C38.4875 62.3112 38.4099 62.2245 38.4228 62.119L38.6104 60.5839C38.6233 60.4784 38.7221 60.3929 38.8299 60.3937L41.706 60.4161C41.8138 60.4168 41.8959 60.5043 41.8884 60.6103L41.7816 62.1368Z" fill="#FFF4C5"/>
<path d="M41.7816 62.1368C41.7742 62.2428 41.6799 62.3289 41.5721 62.3284L38.5953 62.3118C38.4875 62.3112 38.4099 62.2245 38.4228 62.119L38.6104 60.5839C38.6233 60.4784 38.7221 60.3929 38.8299 60.3937L41.706 60.4161C41.8138 60.4168 41.8959 60.5043 41.8884 60.6103L41.7816 62.1368Z" stroke="#604A2F" stroke-miterlimit="10" stroke-linejoin="round"/>
<path d="M46.4167 62.1621C46.4169 62.2683 46.3291 62.3546 46.2213 62.3541L43.2445 62.3374C43.1367 62.3369 43.0528 62.2496 43.0581 62.1434L43.1343 60.6196C43.1396 60.5136 43.2322 60.4275 43.34 60.4282L46.216 60.4506C46.3238 60.4514 46.4122 60.5391 46.4126 60.6453L46.4167 62.1621Z" fill="#FFF4C5"/>
<path d="M46.4167 62.1621C46.4169 62.2683 46.3291 62.3546 46.2213 62.3541L43.2445 62.3374C43.1367 62.3369 43.0528 62.2496 43.0581 62.1434L43.1343 60.6196C43.1396 60.5136 43.2322 60.4275 43.34 60.4282L46.216 60.4506C46.3238 60.4514 46.4122 60.5391 46.4126 60.6453L46.4167 62.1621Z" stroke="#604A2F" stroke-miterlimit="10" stroke-linejoin="round"/>
<path d="M51.0514 62.1886C51.0595 62.2944 50.9779 62.3807 50.8701 62.3801L47.8933 62.3635C47.7855 62.3629 47.6953 62.2755 47.693 62.1694L47.6585 60.6551C47.6561 60.5489 47.7424 60.4628 47.8502 60.4636L50.7262 60.486C50.834 60.4867 50.9289 60.5742 50.9369 60.6801L51.0514 62.1886Z" fill="#FFF4C5"/>
<path d="M51.0514 62.1886C51.0595 62.2944 50.9779 62.3807 50.8701 62.3801L47.8933 62.3635C47.7855 62.3629 47.6953 62.2755 47.693 62.1694L47.6585 60.6551C47.6561 60.5489 47.7424 60.4628 47.8502 60.4636L50.7262 60.486C50.834 60.4867 50.9289 60.5742 50.9369 60.6801L51.0514 62.1886Z" stroke="#604A2F" stroke-miterlimit="10" stroke-linejoin="round"/>
<path d="M55.6861 62.216C55.702 62.3211 55.6266 62.4066 55.5187 62.406L52.542 62.3894C52.4342 62.3888 52.3377 62.3017 52.3275 62.1961L52.1823 60.6893C52.1721 60.5837 52.2519 60.4978 52.3597 60.4985L55.2357 60.5209C55.3435 60.5217 55.4447 60.6084 55.4603 60.7135L55.6861 62.216Z" fill="#FFF4C5"/>
<path d="M55.6861 62.216C55.702 62.3211 55.6266 62.4066 55.5187 62.406L52.542 62.3894C52.4342 62.3888 52.3377 62.3017 52.3275 62.1961L52.1823 60.6893C52.1721 60.5837 52.2519 60.4978 52.3597 60.4985L55.2357 60.5209C55.3435 60.5217 55.4447 60.6084 55.4603 60.7135L55.6861 62.216Z" stroke="#604A2F" stroke-miterlimit="10" stroke-linejoin="round"/>
<path d="M60.3213 62.2444C60.3446 62.3481 60.2756 62.4325 60.1678 62.4319L57.191 62.4153C57.0832 62.4147 56.9803 62.3284 56.9625 62.2237L56.7063 60.7224C56.6884 60.6177 56.762 60.5325 56.8698 60.5335L59.7458 60.5559C59.8536 60.5567 59.9608 60.6422 59.9841 60.7459L60.3213 62.2444Z" fill="#FFF4C5"/>
<path d="M60.3213 62.2444C60.3446 62.3481 60.2756 62.4325 60.1678 62.4319L57.191 62.4153C57.0832 62.4147 56.9803 62.3284 56.9625 62.2237L56.7063 60.7224C56.6884 60.6177 56.762 60.5325 56.8698 60.5335L59.7458 60.5559C59.8536 60.5567 59.9608 60.6422 59.9841 60.7459L60.3213 62.2444Z" stroke="#604A2F" stroke-miterlimit="10" stroke-linejoin="round"/>
<path d="M12.638 64.6889C12.591 64.7845 12.4643 64.8625 12.3565 64.8621L9.24215 64.8535C9.13434 64.8531 9.08769 64.7762 9.13846 64.6825L10.0223 63.0499C10.0731 62.9562 10.2028 62.8799 10.3107 62.8803L13.3243 62.8948C13.4321 62.8954 13.4819 62.974 13.4348 63.0696L12.638 64.6889Z" fill="#FFF4C5"/>
<path d="M12.638 64.6889C12.591 64.7845 12.4643 64.8625 12.3565 64.8621L9.24215 64.8535C9.13434 64.8531 9.08769 64.7762 9.13846 64.6825L10.0223 63.0499C10.0731 62.9562 10.2028 62.8799 10.3107 62.8803L13.3243 62.8948C13.4321 62.8954 13.4819 62.974 13.4348 63.0696L12.638 64.6889Z" stroke="#604A2F" stroke-miterlimit="10" stroke-linejoin="round"/>
<path d="M17.4667 64.698C17.4252 64.7961 17.3031 64.8761 17.1952 64.8757L14.0809 64.867C13.9731 64.8666 13.9221 64.7876 13.9676 64.6915L14.7313 63.0773C14.7767 62.9812 14.9022 62.9027 15.01 62.9033L18.0236 62.9178C18.1314 62.9184 18.1857 62.9989 18.1442 63.097L17.4667 64.698Z" fill="#FFF4C5"/>
<path d="M17.4667 64.698C17.4252 64.7961 17.3031 64.8761 17.1952 64.8757L14.0809 64.867C13.9731 64.8666 13.9221 64.7876 13.9676 64.6915L14.7313 63.0773C14.7767 62.9812 14.9022 62.9027 15.01 62.9033L18.0236 62.9178C18.1314 62.9184 18.1857 62.9989 18.1442 63.097L17.4667 64.698Z" stroke="#604A2F" stroke-miterlimit="10" stroke-linejoin="round"/>
<path d="M22.2943 64.7073C22.2588 64.8075 22.1416 64.8894 22.0338 64.889L18.9194 64.8803C18.8116 64.88 18.7559 64.799 18.7959 64.7003L19.4412 63.104C19.4812 63.0053 19.602 62.925 19.7098 62.9255L22.7234 62.94C22.8312 62.9406 22.8904 63.0231 22.8549 63.1233L22.2943 64.7073Z" fill="#FFF4C5"/>
<path d="M22.2943 64.7073C22.2588 64.8075 22.1416 64.8894 22.0338 64.889L18.9194 64.8803C18.8116 64.88 18.7559 64.799 18.7959 64.7003L19.4412 63.104C19.4812 63.0053 19.602 62.925 19.7098 62.9255L22.7234 62.94C22.8312 62.9406 22.8904 63.0231 22.8549 63.1233L22.2943 64.7073Z" stroke="#604A2F" stroke-miterlimit="10" stroke-linejoin="round"/>
<path d="M27.1216 64.7171C27.0926 64.8195 26.9807 64.9029 26.8729 64.9025L23.7585 64.8938C23.6507 64.8936 23.5901 64.8108 23.6238 64.71L24.1525 63.1308C24.1862 63.03 24.3021 62.9479 24.4099 62.9483L27.4235 62.9628C27.5313 62.9634 27.5958 63.0474 27.5668 63.1497L27.1216 64.7171Z" fill="#FFF4C5"/>
<path d="M27.1216 64.7171C27.0926 64.8195 26.9807 64.9029 26.8729 64.9025L23.7585 64.8938C23.6507 64.8936 23.5901 64.8108 23.6238 64.71L24.1525 63.1308C24.1862 63.03 24.3021 62.9479 24.4099 62.9483L27.4235 62.9628C27.5313 62.9634 27.5958 63.0474 27.5668 63.1497L27.1216 64.7171Z" stroke="#604A2F" stroke-miterlimit="10" stroke-linejoin="round"/>
<path d="M31.9481 64.7273C31.926 64.8312 31.8195 64.916 31.7117 64.9158L28.5973 64.9071C28.4895 64.9069 28.4235 64.8226 28.4507 64.7196L28.8643 63.1565C28.8916 63.0537 29.0019 62.9701 29.1097 62.9705L32.1234 62.985C32.2312 62.9856 32.3014 63.0709 32.279 63.175L31.9481 64.7273Z" fill="#FFF4C5"/>
<path d="M31.9481 64.7273C31.926 64.8312 31.8195 64.916 31.7117 64.9158L28.5973 64.9071C28.4895 64.9069 28.4235 64.8226 28.4507 64.7196L28.8643 63.1565C28.8916 63.0537 29.0019 62.9701 29.1097 62.9705L32.1234 62.985C32.2312 62.9856 32.3014 63.0709 32.279 63.175L31.9481 64.7273Z" stroke="#604A2F" stroke-miterlimit="10" stroke-linejoin="round"/>
<path d="M36.7736 64.7386C36.7587 64.8438 36.6582 64.9296 36.5503 64.9294L33.436 64.9207C33.3282 64.9203 33.2564 64.8347 33.2766 64.7304L33.5765 63.182C33.5967 63.0777 33.7016 62.9927 33.8094 62.9933L36.823 63.0078C36.9308 63.0084 37.0069 63.0949 36.9918 63.1999L36.7736 64.7386Z" fill="#FFF4C5"/>
<path d="M36.7736 64.7386C36.7587 64.8438 36.6582 64.9296 36.5503 64.9294L33.436 64.9207C33.3282 64.9203 33.2564 64.8347 33.2766 64.7304L33.5765 63.182C33.5967 63.0777 33.7016 62.9927 33.8094 62.9933L36.823 63.0078C36.9308 63.0084 37.0069 63.0949 36.9918 63.1999L36.7736 64.7386Z" stroke="#604A2F" stroke-miterlimit="10" stroke-linejoin="round"/>
<path d="M41.5987 64.7505C41.5912 64.8566 41.4969 64.9429 41.3891 64.9427L38.2747 64.934C38.1669 64.9336 38.0893 64.8471 38.1022 64.7416L38.2898 63.2065C38.3028 63.101 38.4016 63.0151 38.5094 63.0157L41.523 63.0302C41.6308 63.0308 41.7129 63.1179 41.7055 63.2239L41.5987 64.7505Z" fill="#FFF4C5"/>
<path d="M41.5987 64.7505C41.5912 64.8566 41.4969 64.9429 41.3891 64.9427L38.2747 64.934C38.1669 64.9336 38.0893 64.8471 38.1022 64.7416L38.2898 63.2065C38.3028 63.101 38.4016 63.0151 38.5094 63.0157L41.523 63.0302C41.6308 63.0308 41.7129 63.1179 41.7055 63.2239L41.5987 64.7505Z" stroke="#604A2F" stroke-miterlimit="10" stroke-linejoin="round"/>
<path d="M46.4235 64.7635C46.4237 64.8697 46.3358 64.9564 46.228 64.956L43.1137 64.9473C43.0058 64.9469 42.9219 64.86 42.9272 64.7538L43.0035 63.23C43.0088 63.124 43.1013 63.0375 43.2091 63.0381L46.2227 63.0526C46.3306 63.0531 46.419 63.1404 46.4193 63.2467L46.4235 64.7635Z" fill="#FFF4C5"/>
<path d="M46.4235 64.7635C46.4237 64.8697 46.3358 64.9564 46.228 64.956L43.1137 64.9473C43.0058 64.9469 42.9219 64.86 42.9272 64.7538L43.0035 63.23C43.0088 63.124 43.1013 63.0375 43.2091 63.0381L46.2227 63.0526C46.3306 63.0531 46.419 63.1404 46.4193 63.2467L46.4235 64.7635Z" stroke="#604A2F" stroke-miterlimit="10" stroke-linejoin="round"/>
<path d="M51.2484 64.7776C51.2564 64.8836 51.1748 64.9699 51.067 64.9695L47.9527 64.9608C47.8448 64.9605 47.7547 64.8734 47.7523 64.7671L47.7178 63.2529C47.7155 63.1466 47.8017 63.0601 47.9095 63.0607L50.9232 63.0752C51.031 63.0758 51.1258 63.1629 51.1339 63.2687L51.2484 64.7776Z" fill="#FFF4C5"/>
<path d="M51.2484 64.7776C51.2564 64.8836 51.1748 64.9699 51.067 64.9695L47.9527 64.9608C47.8448 64.9605 47.7547 64.8734 47.7523 64.7671L47.7178 63.2529C47.7155 63.1466 47.8017 63.0601 47.9095 63.0607L50.9232 63.0752C51.031 63.0758 51.1258 63.1629 51.1339 63.2687L51.2484 64.7776Z" stroke="#604A2F" stroke-miterlimit="10" stroke-linejoin="round"/>
<path d="M60.8983 64.8085C60.9216 64.9122 60.8524 64.9967 60.7446 64.9964L52.7914 64.9743C52.6836 64.9742 52.587 64.8872 52.5768 64.7816L52.4315 63.2748C52.4213 63.169 52.5011 63.0831 52.6089 63.0835L60.3225 63.1205C60.4304 63.1211 60.5376 63.2063 60.5609 63.31L60.8983 64.8085Z" fill="#FFF4C5"/>
<path d="M60.8983 64.8085C60.9216 64.9122 60.8524 64.9967 60.7446 64.9964L52.7914 64.9743C52.6836 64.9742 52.587 64.8872 52.5768 64.7816L52.4315 63.2748C52.4213 63.169 52.5011 63.0831 52.6089 63.0835L60.3225 63.1205C60.4304 63.1211 60.5376 63.2063 60.5609 63.31L60.8983 64.8085Z" stroke="#604A2F" stroke-miterlimit="10" stroke-linejoin="round"/>
<path d="M11.2155 67.5802C11.1684 67.6758 11.0418 67.754 10.934 67.754H7.67159C7.56378 67.754 7.51713 67.6773 7.5679 67.5837L8.45176 65.951C8.50253 65.8573 8.63209 65.7808 8.73991 65.781L11.9015 65.787C12.0093 65.7872 12.0591 65.8656 12.0121 65.9612L11.2155 67.5802Z" fill="#FFF4C5"/>
<path d="M11.2155 67.5802C11.1684 67.6758 11.0418 67.754 10.934 67.754H7.67159C7.56378 67.754 7.51713 67.6773 7.5679 67.5837L8.45176 65.951C8.50253 65.8573 8.63209 65.7808 8.73991 65.781L11.9015 65.787C12.0093 65.7872 12.0591 65.8656 12.0121 65.9612L11.2155 67.5802Z" stroke="#604A2F" stroke-miterlimit="10" stroke-linejoin="round"/>
<path d="M41.402 67.5613C41.3946 67.6673 41.3003 67.754 41.1925 67.754H12.7146C12.6068 67.754 12.5558 67.6752 12.6015 67.579L13.3652 65.9649C13.4106 65.8687 13.5361 65.7899 13.6441 65.7903L41.3264 65.8419C41.4342 65.8421 41.5163 65.929 41.5089 66.0348L41.402 67.5613Z" fill="#FFF4C5"/>
<path d="M41.402 67.5613C41.3946 67.6673 41.3003 67.754 41.1925 67.754H12.7146C12.6068 67.754 12.5558 67.6752 12.6015 67.579L13.3652 65.9649C13.4106 65.8687 13.5361 65.7899 13.6441 65.7903L41.3264 65.8419C41.4342 65.8421 41.5163 65.929 41.5088 66.0348L41.402 67.5613Z" stroke="#604A2F" stroke-miterlimit="10" stroke-linejoin="round"/>
<path d="M46.4311 67.5609C46.4315 67.6671 46.3435 67.754 46.2357 67.754H42.9733C42.8655 67.754 42.7816 67.6671 42.7869 67.5611L42.8631 66.0373C42.8684 65.9313 42.9609 65.8446 43.0687 65.8448L46.2304 65.8507C46.3382 65.8509 46.4266 65.938 46.427 66.0443L46.4311 67.5609Z" fill="#FFF4C5"/>
<path d="M46.4311 67.5609C46.4315 67.6671 46.3435 67.754 46.2357 67.754H42.9733C42.8655 67.754 42.7816 67.6671 42.7869 67.5611L42.8631 66.0373C42.8684 65.9313 42.9609 65.8446 43.0687 65.8448L46.2304 65.8507C46.3382 65.8509 46.4266 65.938 46.427 66.0443L46.4311 67.5609Z" stroke="#604A2F" stroke-miterlimit="10" stroke-linejoin="round"/>
<path d="M51.4601 67.5614C51.4681 67.6673 51.3866 67.754 51.2787 67.754H48.0164C47.9086 67.754 47.8184 67.6671 47.816 67.5608L47.7815 66.0466C47.7792 65.9403 47.8654 65.8536 47.9732 65.8538L51.1349 65.8596C51.2427 65.8598 51.3376 65.9467 51.3456 66.0525L51.4601 67.5614Z" fill="#FFF4C5"/>
<path d="M51.4601 67.5614C51.4681 67.6673 51.3866 67.754 51.2787 67.754H48.0164C47.9086 67.754 47.8184 67.6671 47.816 67.5608L47.7815 66.0466C47.7792 65.9403 47.8654 65.8536 47.9732 65.8538L51.1349 65.8596C51.2427 65.8598 51.3376 65.9467 51.3456 66.0525L51.4601 67.5614Z" stroke="#604A2F" stroke-miterlimit="10" stroke-linejoin="round"/>
<path d="M56.489 67.563C56.5049 67.668 56.4294 67.754 56.3216 67.754H53.0593C52.9514 67.754 52.8548 67.6674 52.8446 67.5618L52.6994 66.0551C52.6892 65.9494 52.769 65.8629 52.8768 65.8631L56.0384 65.8691C56.1462 65.8693 56.2473 65.9554 56.263 66.0605L56.489 67.563Z" fill="#FFF4C5"/>
<path d="M56.489 67.563C56.5049 67.668 56.4294 67.754 56.3216 67.754H53.0593C52.9514 67.754 52.8548 67.6674 52.8446 67.5618L52.6994 66.0551C52.6892 65.9494 52.769 65.8629 52.8768 65.8631L56.0384 65.8691C56.1462 65.8693 56.2473 65.9554 56.263 66.0605L56.489 67.563Z" stroke="#604A2F" stroke-miterlimit="10" stroke-linejoin="round"/>
<path d="M61.5185 67.5655C61.5418 67.6692 61.4726 67.754 61.3648 67.754H58.1024C57.9946 67.754 57.8917 67.6683 57.8739 67.5636L57.6177 66.0624C57.5998 65.9578 57.6733 65.8722 57.7811 65.8724L60.9428 65.8782C61.0506 65.8784 61.1578 65.9634 61.1811 66.0671L61.5185 67.5655Z" fill="#FFF4C5"/>
<path d="M61.5185 67.5655C61.5418 67.6692 61.4726 67.754 61.3648 67.754H58.1024C57.9946 67.754 57.8917 67.6683 57.8739 67.5636L57.6177 66.0624C57.5998 65.9578 57.6733 65.8722 57.7811 65.8724L60.9428 65.8782C61.0506 65.8784 61.1578 65.9634 61.1811 66.0671L61.5185 67.5655Z" stroke="#604A2F" stroke-miterlimit="10" stroke-linejoin="round"/>
<path d="M68.1231 62.1986C68.1586 62.299 68.0994 62.3805 67.9916 62.3799L65.0201 62.3631C64.9123 62.3625 64.7992 62.2785 64.7688 62.1767L64.323 60.6806C64.2927 60.5786 64.356 60.496 64.4638 60.497L67.3347 60.5196C67.4425 60.5203 67.5597 60.6032 67.595 60.7036L68.1231 62.1986Z" fill="#FFF4C5"/>
<path d="M68.1231 62.1986C68.1586 62.299 68.0994 62.3805 67.9916 62.3799L65.0201 62.3631C64.9123 62.3625 64.7992 62.2785 64.7688 62.1767L64.323 60.6806C64.2927 60.5786 64.356 60.496 64.4638 60.497L67.3347 60.5196C67.4425 60.5203 67.5597 60.6032 67.595 60.7036L68.1231 62.1986Z" stroke="#604A2F" stroke-miterlimit="10" stroke-linejoin="round"/>
<path d="M72.7528 62.2294C72.795 62.3272 72.741 62.4067 72.6332 62.4061L69.6618 62.3894C69.5539 62.3888 69.4352 62.3067 69.3979 62.207L68.8385 60.7119C68.8012 60.6122 68.8589 60.5313 68.9667 60.5323L71.8376 60.5549C71.9454 60.5556 72.0681 60.6364 72.1101 60.7343L72.7528 62.2294Z" fill="#FFF4C5"/>
<path d="M72.7528 62.2294C72.795 62.3272 72.741 62.4067 72.6332 62.4061L69.6618 62.3894C69.5539 62.3888 69.4352 62.3067 69.3979 62.207L68.8385 60.7119C68.8012 60.6122 68.8589 60.5313 68.9667 60.5323L71.8376 60.5549C71.9454 60.5556 72.0681 60.6364 72.1101 60.7343L72.7528 62.2294Z" stroke="#604A2F" stroke-miterlimit="10" stroke-linejoin="round"/>
<path d="M77.3832 62.261C77.4314 62.356 77.3826 62.4332 77.2748 62.4327L74.3033 62.4158C74.1955 62.4153 74.0714 62.3353 74.0277 62.2384L73.3528 60.7428C73.3091 60.6457 73.3615 60.5671 73.4693 60.5678L76.3402 60.5904C76.448 60.5912 76.5756 60.6698 76.6238 60.7646L77.3832 62.261Z" fill="#FFF4C5"/>
<path d="M77.3832 62.261C77.4315 62.356 77.3826 62.4332 77.2748 62.4327L74.3033 62.4158C74.1955 62.4153 74.0714 62.3353 74.0277 62.2384L73.3528 60.7428C73.3091 60.6457 73.3615 60.5671 73.4693 60.5678L76.3402 60.5904C76.448 60.5912 76.5756 60.6698 76.6238 60.7646L77.3832 62.261Z" stroke="#604A2F" stroke-miterlimit="10" stroke-linejoin="round"/>
<path d="M69.021 64.7415C69.0564 64.8419 68.9972 64.9236 68.8894 64.9234L65.7803 64.9145C65.6725 64.9141 65.5594 64.8305 65.5291 64.7287L65.0833 63.2326C65.0529 63.1306 65.1162 63.0478 65.224 63.0482L68.2326 63.0628C68.3404 63.0634 68.4576 63.1459 68.4929 63.2463L69.021 64.7415Z" fill="#FFF4C5"/>
<path d="M69.021 64.7415C69.0564 64.8419 68.9972 64.9236 68.8894 64.9234L65.7803 64.9145C65.6725 64.9141 65.5594 64.8305 65.5291 64.7287L65.0833 63.2326C65.0529 63.1306 65.1162 63.0478 65.224 63.0482L68.2326 63.0628C68.3404 63.0634 68.4576 63.1459 68.4929 63.2463L69.021 64.7415Z" stroke="#604A2F" stroke-miterlimit="10" stroke-linejoin="round"/>
<path d="M73.8406 64.76C73.8826 64.8577 73.8289 64.9374 73.7211 64.9373L70.612 64.9284C70.5042 64.928 70.3854 64.8463 70.3481 64.7466L69.7887 63.2515C69.7514 63.1518 69.8091 63.0707 69.9169 63.0713L72.9254 63.086C73.0332 63.0865 73.1557 63.1669 73.1979 63.2648L73.8406 64.76Z" fill="#FFF4C5"/>
<path d="M73.8406 64.76C73.8826 64.8577 73.8289 64.9374 73.7211 64.9373L70.612 64.9284C70.5042 64.928 70.3854 64.8463 70.3481 64.7466L69.7887 63.2515C69.7514 63.1518 69.8091 63.0707 69.9169 63.0713L72.9254 63.086C73.0332 63.0865 73.1557 63.1669 73.1979 63.2648L73.8406 64.76Z" stroke="#604A2F" stroke-miterlimit="10" stroke-linejoin="round"/>
<path d="M69.9863 67.4759C70.0218 67.5761 69.9624 67.6584 69.8546 67.6582L66.5975 67.6578C66.4897 67.6578 66.3766 67.5744 66.3462 67.4724L65.9004 65.9763C65.8701 65.8743 65.9334 65.7911 66.0412 65.7913L69.1977 65.7974C69.3055 65.7976 69.4227 65.8799 69.4582 65.9803L69.9863 67.4759Z" fill="#FFF4C5"/>
<path d="M69.9863 67.4759C70.0218 67.5761 69.9624 67.6584 69.8546 67.6582L66.5975 67.6578C66.4897 67.6578 66.3766 67.5744 66.3462 67.4724L65.9004 65.9763C65.8701 65.8743 65.9334 65.7911 66.0412 65.7913L69.1977 65.7974C69.3055 65.7976 69.4227 65.8799 69.4582 65.9803L69.9863 67.4759Z" stroke="#604A2F" stroke-miterlimit="10" stroke-linejoin="round"/>
<path d="M75.0103 67.4809C75.0523 67.5786 74.9986 67.6588 74.8908 67.6588L71.6337 67.6584C71.5259 67.6584 71.4071 67.5769 71.3698 67.4772L70.8104 65.9821C70.7732 65.8824 70.8308 65.8011 70.9386 65.8013L74.0951 65.8075C74.2029 65.8077 74.3254 65.8878 74.3676 65.9857L75.0103 67.4809Z" fill="#FFF4C5"/>
<path d="M75.0103 67.4809C75.0523 67.5786 74.9986 67.6588 74.8908 67.6588L71.6337 67.6584C71.5259 67.6584 71.4071 67.5769 71.3698 67.4772L70.8104 65.9821C70.7732 65.8824 70.8308 65.8011 70.9386 65.8013L74.0951 65.8075C74.2029 65.8077 74.3254 65.8878 74.3676 65.9857L75.0103 67.4809Z" stroke="#604A2F" stroke-miterlimit="10" stroke-linejoin="round"/>
<path d="M80.0353 67.4863C80.0835 67.5813 80.0347 67.659 79.9269 67.659L76.6696 67.6586C76.5618 67.6586 76.4377 67.5792 76.394 67.4821L75.7193 65.9865C75.6756 65.8894 75.7279 65.8102 75.8357 65.8104L78.9922 65.8166C79.1001 65.8168 79.2277 65.8946 79.2759 65.9896L80.0353 67.4863Z" fill="#FFF4C5"/>
<path d="M80.0353 67.4863C80.0835 67.5813 80.0347 67.659 79.9269 67.659L76.6696 67.6586C76.5618 67.6586 76.4377 67.5792 76.394 67.4821L75.7193 65.9865C75.6756 65.8894 75.7279 65.8102 75.8357 65.8104L78.9922 65.8166C79.1001 65.8168 79.2277 65.8946 79.2759 65.9896L80.0353 67.4863Z" stroke="#604A2F" stroke-miterlimit="10" stroke-linejoin="round"/>
<path d="M78.661 64.7789C78.7092 64.8739 78.6604 64.9514 78.5526 64.951L75.4435 64.9421C75.3357 64.9417 75.2116 64.8621 75.1679 64.765L74.493 63.2695C74.4493 63.1723 74.5016 63.0935 74.6094 63.0939L77.6179 63.1086C77.7258 63.1092 77.8534 63.1874 77.9016 63.2822L78.661 64.7789Z" fill="#FFF4C5"/>
<path d="M78.661 64.7789C78.7092 64.8739 78.6604 64.9514 78.5526 64.951L75.4435 64.9421C75.3357 64.9417 75.2116 64.8621 75.1679 64.765L74.493 63.2695C74.4493 63.1723 74.5016 63.0935 74.6094 63.0939L77.6179 63.1086C77.7258 63.1092 77.8534 63.1874 77.9016 63.2822L78.661 64.7789Z" stroke="#604A2F" stroke-miterlimit="10" stroke-linejoin="round"/>
</svg>
