<svg width="16" height="29" viewBox="0 0 16 29" fill="none" xmlns="http://www.w3.org/2000/svg">
<path d="M9.70992 2.26965C9.74897 3.71753 9.7958 5.16572 9.82255 6.61363L9.91577 10.9577L10.0019 15.3017L10.0721 19.6458L9.64483 19.3442L14.4244 17.5764L15.4229 17.207L14.8976 18.1439L12.2537 22.8576C11.3739 24.4297 10.4828 25.995 9.58968 27.5597L9.25514 28.1456L8.81796 27.6298L5.00475 23.1312L1.21059 18.6167L0.0411897 17.2253L1.73055 17.8815L6.36002 19.6799L5.78757 20.1198L4.88571 10.4117L4.45889 5.55518L4.05213 0.696656L3.99616 0.0271728L4.36481 0.58134L7.25399 4.92711L7.12548 4.91771L9.70992 2.26965ZM9.70992 2.26965L7.24614 5.03134L7.17868 5.10691L7.11763 5.02162L4.08145 0.777173L4.39381 0.662181L4.98015 5.50215L5.54675 10.3441L6.63143 20.0333L6.70748 20.7131L6.05866 20.4732L1.40057 18.7509L1.92052 18.016L5.73988 22.5094L9.54017 27.0187L8.76844 27.0888C9.66768 25.5277 10.5685 23.9678 11.4807 22.4144L14.2135 17.7517L14.6867 18.3192L9.85794 19.9486L9.42558 20.0946L9.43066 19.6473L9.48017 15.303L9.54553 10.9585L9.61801 6.61412C9.63786 5.1661 9.67777 3.71803 9.70992 2.26965Z" fill="black"/>
</svg>
