<svg width="11" height="15" viewBox="0 0 11 15" fill="none" xmlns="http://www.w3.org/2000/svg">
<path d="M7.64668 9.1352L7.10317 12.1958C7.03139 12.5999 6.60625 12.5999 6.53447 12.1958L5.99067 9.1352C5.96489 8.99075 5.88138 8.87795 5.77444 8.84308L3.5093 8.10854C3.21044 8.01156 3.21044 7.437 3.5093 7.34002L5.77444 6.60548C5.88138 6.57091 5.96489 6.45781 5.99067 6.31336L6.53447 3.25274C6.60625 2.8487 7.03139 2.8487 7.10317 3.25274L7.64668 6.31336C7.67246 6.45781 7.75597 6.57061 7.86291 6.60548L10.1281 7.34002C10.4269 7.437 10.4269 8.01156 10.1281 8.10854L7.86291 8.84308C7.75597 8.87795 7.67246 8.99075 7.64668 9.1352Z" fill="white"/>
<path d="M6.81917 12.5683C6.67502 12.5683 6.51006 12.457 6.46582 12.2077L5.92202 9.14705C5.90121 9.02926 5.83471 8.9358 5.75326 8.90943L3.48811 8.17489C3.32228 8.12098 3.21533 7.94401 3.21533 7.72397C3.21533 7.50393 3.32257 7.32696 3.48811 7.27334L5.75326 6.5388C5.835 6.51243 5.90121 6.41897 5.92202 6.30119L6.46582 3.24056C6.51006 2.99151 6.67502 2.87988 6.81888 2.87988H6.81917C6.96303 2.87988 7.12799 2.99151 7.17223 3.24056L7.71603 6.30119C7.73683 6.41897 7.80334 6.51243 7.88509 6.5388L10.1499 7.27334C10.3155 7.32696 10.4227 7.50393 10.4227 7.72397C10.4227 7.9443 10.3158 8.12098 10.1502 8.17489L7.88479 8.90943C7.80334 8.9358 7.73683 9.02926 7.71603 9.14705L7.17223 12.2077C7.12828 12.4567 6.96333 12.5683 6.81917 12.5683ZM6.81917 3.01935C6.71487 3.01935 6.63019 3.11545 6.60382 3.26459L6.06002 6.32521C6.02984 6.49603 5.92876 6.62875 5.79662 6.67153L3.53118 7.40636C3.40988 7.44562 3.35538 7.59417 3.35538 7.72397C3.35538 7.85376 3.40988 8.00261 3.53118 8.04187L5.79633 8.77641C5.92847 8.81918 6.02955 8.95191 6.05973 9.12273L6.60352 12.1834C6.62989 12.3322 6.71457 12.4286 6.81917 12.4286C6.92348 12.4286 7.00815 12.3325 7.03452 12.1834L7.57803 9.12273C7.6085 8.95191 7.70929 8.81918 7.84143 8.77641L10.1066 8.04187C10.2279 8.00261 10.2824 7.85376 10.2824 7.72397C10.2824 7.59446 10.2279 7.44562 10.1066 7.40636L7.84143 6.67182C7.70929 6.62875 7.60821 6.49632 7.57803 6.3255L7.03452 3.26488C7.00815 3.11545 6.92377 3.01935 6.81917 3.01935Z" fill="black"/>
<path d="M3.1107 4.38244L2.73185 6.51574C2.68175 6.79731 2.38553 6.79731 2.33543 6.51574L1.95659 4.38244C1.93872 4.28165 1.88041 4.20313 1.80599 4.17881L0.22704 3.66666C0.0187209 3.59897 0.0187209 3.19845 0.22704 3.13106L1.80599 2.61891C1.88041 2.59459 1.93872 2.51606 1.95659 2.41527L2.33543 0.281977C2.38553 0.000408731 2.68204 0.000408731 2.73185 0.281977L3.1107 2.41527C3.12857 2.51606 3.18688 2.59459 3.2613 2.61891L4.84025 3.13106C5.04856 3.19874 5.04856 3.59927 4.84025 3.66666L3.2613 4.17881C3.18688 4.20313 3.12857 4.28165 3.1107 4.38244Z" fill="white"/>
<path d="M2.53323 6.79661C2.42395 6.79661 2.29913 6.71339 2.26602 6.52764L1.88718 4.39405C1.87399 4.31962 1.83298 4.26073 1.78375 4.24491L0.204805 3.73276C0.0802821 3.69232 0 3.56106 0 3.39845C0 3.23554 0.0802801 3.10428 0.20451 3.06385L1.78346 2.55169C1.83298 2.53558 1.8737 2.47698 1.88689 2.40227L2.26573 0.268969C2.29855 0.0832104 2.42366 0 2.53294 0C2.64223 0 2.76704 0.0832104 2.79986 0.268969L3.17899 2.40227C3.19218 2.47698 3.23261 2.53558 3.28242 2.55169L4.86108 3.06356C4.9856 3.10399 5.06588 3.23525 5.06588 3.39816C5.06588 3.56077 4.9856 3.69203 4.86108 3.73246L3.28213 4.24462C3.23261 4.26073 3.19218 4.31933 3.17899 4.39375L2.79986 6.52734C2.76734 6.71339 2.64252 6.79661 2.53323 6.79661ZM2.53323 0.140345C2.47112 0.140345 2.42043 0.200408 2.40373 0.293874L2.02489 2.42717C2.00203 2.55404 1.92644 2.65278 1.82682 2.6853L0.247872 3.19716C0.173451 3.22119 0.140051 3.31582 0.140051 3.39874C0.140051 3.48137 0.173451 3.57571 0.247872 3.59974L1.82682 4.11189C1.92644 4.14412 2.00233 4.24286 2.02489 4.36973L2.40373 6.50332C2.42014 6.59649 2.47112 6.65685 2.53323 6.65685C2.59535 6.65685 2.64604 6.59649 2.66245 6.50332L3.04158 4.36973C3.06385 4.24315 3.13973 4.14412 3.23935 4.11189L4.8183 3.59974C4.89272 3.57571 4.92613 3.48137 4.92613 3.39874C4.92613 3.31582 4.89272 3.22148 4.81801 3.19716L3.23935 2.6853C3.13944 2.65278 3.06385 2.55404 3.04129 2.42717L2.66215 0.293874C2.64604 0.200701 2.59535 0.140345 2.53323 0.140345Z" fill="black"/>
<path d="M4.48433 13.1827L4.20189 14.7725C4.16468 14.9823 3.94376 14.9823 3.90655 14.7725L3.6241 13.1827C3.61062 13.1077 3.56755 13.0491 3.51188 13.0309L2.33522 12.6495C2.17993 12.5991 2.17993 12.3005 2.33522 12.2501L3.51188 11.8686C3.56755 11.8505 3.61092 11.7919 3.6241 11.7169L3.90655 10.1271C3.94376 9.91728 4.16468 9.91728 4.20189 10.1271L4.48433 11.7169C4.49781 11.7919 4.54118 11.8505 4.59655 11.8686L5.77322 12.2501C5.9285 12.3005 5.9285 12.5991 5.77322 12.6495L4.59655 13.0309C4.54088 13.0491 4.49752 13.1077 4.48433 13.1827Z" fill="white"/>
<path d="M4.0533 15.0001C3.96452 15.0001 3.86314 14.9336 3.83677 14.785L3.55433 13.1949C3.54583 13.1466 3.51975 13.1073 3.48958 13.0977L2.31291 12.7162C2.2127 12.6836 2.14795 12.579 2.14795 12.4498C2.14795 12.3206 2.2127 12.2163 2.31262 12.1838L3.48958 11.802C3.51975 11.7924 3.54583 11.7531 3.55433 11.7048L3.83677 10.115C3.86314 9.96641 3.96452 9.8999 4.0533 9.8999C4.14207 9.8999 4.24375 9.96641 4.27012 10.115L4.55256 11.7048C4.56106 11.7531 4.58743 11.7924 4.6179 11.8023L5.79427 12.1838C5.89448 12.2163 5.95923 12.3206 5.95923 12.4498C5.95923 12.579 5.89448 12.6836 5.79427 12.7159L4.6176 13.0977C4.58743 13.1073 4.56106 13.1466 4.55256 13.1949L4.27012 14.7847C4.24375 14.9336 4.14237 15.0001 4.0533 15.0001ZM4.0533 10.0397C4.02283 10.0397 3.9865 10.0704 3.97448 10.1393L3.69233 11.7291C3.67446 11.8302 3.61322 11.909 3.53294 11.935L2.35598 12.3168C2.3091 12.3321 2.288 12.3945 2.288 12.4498C2.288 12.5052 2.3091 12.5679 2.35598 12.5831L3.53264 12.9646C3.61322 12.9907 3.67446 13.0695 3.69233 13.1706L3.97448 14.7604C3.9988 14.8984 4.10809 14.8978 4.13241 14.7604L4.41485 13.1706C4.43272 13.0695 4.49396 12.9907 4.57453 12.9646L5.7512 12.5831C5.79808 12.5679 5.81918 12.5052 5.81918 12.4501C5.81918 12.395 5.79808 12.3323 5.7512 12.3171L4.57453 11.9356C4.49396 11.9096 4.43272 11.8304 4.41485 11.7297L4.13241 10.1399C4.1201 10.0707 4.08406 10.0397 4.0533 10.0397Z" fill="black"/>
</svg>
