<svg width="11" height="19" viewBox="0 0 11 19" fill="none" xmlns="http://www.w3.org/2000/svg">
<path opacity="0.7" d="M9.53651 9.53123C9.49989 8.52223 8.32114 7.73191 7.59236 6.85137C5.83856 4.73277 7.10696 1.67153 10.0795 0.84943C8.31076 1.15011 7.05014 1.48988 5.62178 2.29464C4.19347 3.099 3.2477 4.52476 3.82352 5.86125C4.0763 6.44855 4.59941 6.98143 4.71434 7.5865C4.97748 8.97342 3.12499 9.88614 1.97394 10.9216C0.665184 12.0988 0.167145 13.7725 0.661728 15.33C1.13088 16.8071 2.48438 18.1481 4.25965 18.9152C4.2642 18.9144 4.26876 18.9137 4.27336 18.9125C2.73701 16.7938 3.37663 13.9718 5.7839 12.5607C6.53978 12.1175 7.42748 11.8085 8.17967 11.3616C8.93062 10.9151 9.56347 10.2732 9.53651 9.53123Z" fill="white"/>
</svg>
