<svg width="17" height="18" viewBox="0 0 17 18" fill="none" xmlns="http://www.w3.org/2000/svg">
<path opacity="0.7" d="M13.9277 5.34004C13.0424 4.82457 12.0559 4.41855 11.2116 3.8627C10.3672 3.30722 9.65096 2.54778 9.603 1.71453C9.56895 1.12419 9.93698 0.397188 10.5381 0.0471328C8.97696 0.438414 7.43535 0.919529 6.34917 1.8333C5.06611 2.91241 4.70118 4.79724 6.09876 5.90787C7.39263 6.936 9.77007 7.04131 10.5786 8.32107C11.1827 9.27699 10.486 10.4252 9.3889 10.9852C8.29176 11.5455 6.9052 11.6674 5.57506 11.7952C4.24527 11.9231 2.8576 12.0899 1.82359 12.7149C0.810133 13.3275 0.261428 14.362 0.410144 15.3814C0.558545 16.4003 1.3997 17.3736 2.57755 17.8899C0.97474 17.2302 1.46246 15.3472 2.4647 14.2604C3.46659 13.1736 5.29216 12.7283 7.05041 12.6041C8.80865 12.4799 10.6125 12.6129 12.3477 12.3912C14.0833 12.1696 15.8327 11.4972 16.4983 10.2575C17.4094 8.56094 15.9197 6.50015 13.9277 5.34004Z" fill="white"/>
</svg>
